# xmcd
#
# Track frame offsets:
#	150
#	18846
#	30134
#	51461
#	66709
#	88204
#	108522
#	125765
#	140261
#	152563
#	168427
#	176124
#	185485
#	206419
#	222732
#	239432
#	254502
#	266528
#	278557
#	292906
#	309170
#
# Disc length: 4265 seconds
#
# Revision: 2
# Processed by: cddbd v1.5.2PL0 Copyright (c) Steve Scherf et al.
# Submitted via: EasyCDDAExtractor 15.2.5.1
#
DISCID=3a10a715
DTITLE=Разные исполнители - Хіти української естради 50-х років
DYEAR=1900
DGENRE=
TTITLE0=анс. УР - Київський вальс
TTITLE1=Ю.Пєшковська - Троянди на пероні
TTITLE2=М.Кондратюк - Пісня про вчительку
TTITLE3=Е.Яроцька - Білі ночі
TTITLE4=О.Таранець - Пісня про щастя
TTITLE5=Ю.Аполькова - Ми підем, де трави похилі
TTITLE6=ДЗКБУ, сол. К.Силантьєв - Верховино, мати моя
TTITLE7=Н.Павленко, В.Третьякова, Т.Поліщук - Гуцулка Ксеня
TTITLE8=С.Козак - Прощальна
TTITLE9=Г.Прокопенко - Не скажу Вам хто такий
TTITLE10=Буковинський анс. пісні і танцю - Іде весна над нивами
TTITLE11=ДУНХ Г.Верьовки - Шахтарочка
TTITLE12=Хорова капела УР - Любов моя
TTITLE13=О.Фоменко, О.Кірова - Вальс кохання
TTITLE14=Д.Гнатюк - Пісня з полонини
TTITLE15=Вокальний квартет - Коли заснули сині гори
TTITLE16=О.Скачко - Може, я тебе вигадав
TTITLE17=оркестр Укрцирку - Білі троянди
TTITLE18=С.Козак, М.Фокін - Ти - любов моя
TTITLE19=П.Кучмій, А.Бойко - Колгоспний вальс
TTITLE20=ДУНХ Г.Верьовки - І в Вас, і в Нас
EXTD=
EXTT0=
EXTT1=
EXTT2=
EXTT3=
EXTT4=
EXTT5=
EXTT6=
EXTT7=
EXTT8=
EXTT9=
EXTT10=
EXTT11=
EXTT12=
EXTT13=
EXTT14=
EXTT15=
EXTT16=
EXTT17=
EXTT18=
EXTT19=
EXTT20=
PLAYORDER=
